<?xml version="1.0" encoding="UTF-8" standalone="no"?>
<!-- Created with Inkscape (http://www.inkscape.org/) -->

<svg
   xmlns:dc="http://purl.org/dc/elements/1.1/"
   xmlns:cc="http://creativecommons.org/ns#"
   xmlns:rdf="http://www.w3.org/1999/02/22-rdf-syntax-ns#"
   xmlns:svg="http://www.w3.org/2000/svg"
   xmlns="http://www.w3.org/2000/svg"
   xmlns:sodipodi="http://sodipodi.sourceforge.net/DTD/sodipodi-0.dtd"
   xmlns:inkscape="http://www.inkscape.org/namespaces/inkscape"
   width="64.916664mm"
   height="45.63393mm"
   viewBox="0 0 64.916664 45.63393"
   version="1.1"
   id="svg8"
   inkscape:version="0.92.4 (5da689c313, 2019-01-14)"
   sodipodi:docname="Falcon 9.svg">
  <defs
     id="defs2" />
  <sodipodi:namedview
     id="base"
     pagecolor="#ffffff"
     bordercolor="#666666"
     borderopacity="1.0"
     inkscape:pageopacity="0.0"
     inkscape:pageshadow="2"
     inkscape:zoom="1.2403374"
     inkscape:cx="122.4535"
     inkscape:cy="99.885388"
     inkscape:document-units="mm"
     inkscape:current-layer="layer1"
     showgrid="false"
     fit-margin-right="10"
     fit-margin-top="2"
     fit-margin-left="2"
     fit-margin-bottom="2"
     inkscape:window-width="983"
     inkscape:window-height="752"
     inkscape:window-x="735"
     inkscape:window-y="39"
     inkscape:window-maximized="0" />
  <metadata
     id="metadata5">
    <rdf:RDF>
      <cc:Work
         rdf:about="">
        <dc:format>image/svg+xml</dc:format>
        <dc:type
           rdf:resource="http://purl.org/dc/dcmitype/StillImage" />
        <dc:title></dc:title>
      </cc:Work>
    </rdf:RDF>
  </metadata>
  <g
     inkscape:label="Layer 1"
     inkscape:groupmode="layer"
     id="layer1"
     transform="translate(-73.434176,-146.69265)">
    <g
       transform="translate(8.4504483,34.26321)"
       id="layer1-1"
       inkscape:label="Layer 1">
      <g
         transform="matrix(0.2975384,0,0,0.2975384,61.114834,92.400221)"
         id="g21">
        <path
           sodipodi:nodetypes="ccccscccccccsccccccccsccccsssscccccsccsscssscccc"
           inkscape:connector-curvature="0"
           id="path25"
           d="m 195.48648,167.53684 c -0.0558,-0.1819 -0.16431,-0.78142 -0.24117,-1.33226 -0.40739,-2.92006 -2.78564,-5.84495 -6.06262,-7.45613 -3.45849,-1.70043 -7.70035,-2.4956 -18.26812,-3.42452 -2.3016,-0.20231 -4.25745,-0.44056 -4.34633,-0.52944 -0.2814,-0.2814 1.29635,-1.71093 3.02156,-2.73772 0.91509,-0.54463 1.66588,-1.06938 1.66843,-1.1661 0.003,-0.0967 -0.73952,-0.22612 -1.64903,-0.28754 -1.14746,-0.0775 -2.78749,-0.53877 -5.35781,-1.50698 -2.03729,-0.76741 -4.40043,-1.53774 -5.25142,-1.71183 l -1.54724,-0.31652 0.95193,-0.72608 c 0.52357,-0.39934 0.95194,-0.82686 0.95194,-0.95004 0,-0.32465 -3.0696,-0.80918 -5.04876,-0.79694 -0.93396,0.006 -2.59108,0.16956 -3.68249,0.36396 -1.09141,0.19441 -2.02031,0.32242 -2.06422,0.28448 -0.18166,-0.15694 4.00817,-1.7479 5.68136,-2.15734 1.05565,-0.25832 2.9068,-0.44563 4.45265,-0.45055 2.8572,-0.009 4.06965,0.26465 8.17515,1.84577 1.29487,0.49869 2.42561,0.83541 2.51274,0.74827 0.31424,-0.31423 -1.23769,-2.64793 -2.30722,-3.46945 -1.77449,-1.36303 -3.17609,-1.54255 -11.95254,-1.53093 -14.9446,0.0198 -30.36933,2.12069 -39.8198,5.42363 -1.95096,0.68187 -2.61614,0.80128 -3.68117,0.66087 -5.00146,-0.6594 -15.903074,-6.15237 -29.656325,-14.94288 -7.058157,-4.51127 -25.687173,-17.33369 -26.987499,-18.57559 -0.145521,-0.13898 1.283229,0.47906 3.175,1.37343 21.989203,10.39582 46.999314,17.50033 73.024994,20.7439 9.45503,1.17837 17.85116,1.78745 30.89116,2.24093 5.33701,0.1856 6.67143,0.30767 7.20818,0.65936 0.9163,0.60038 3.19615,3.41282 5.83497,7.19805 l 2.234,3.20453 1.68489,0.17262 c 5.56039,0.56968 12.01259,3.55053 15.46295,7.14372 2.24425,2.33716 3.07466,4.16604 3.07838,6.7798 0.002,1.68074 -0.12563,2.25765 -0.83664,3.77031 -0.84788,1.80385 -1.06532,2.05701 -1.24988,1.45521 z M 85.520242,154.89458 C 78.259007,150.562 67.451624,141.63824 58.148168,132.29319 42.279902,116.35398 29.829085,98.659262 22.713849,81.935019 21.065406,78.060381 19.598624,74.174986 19.73345,74.040161 c 0.04989,-0.04989 0.499528,0.881415 0.999204,2.069558 1.954327,4.647049 6.695101,12.476819 11.102051,18.335929 5.108941,6.792422 12.746685,15.035912 19.704367,21.267122 13.342583,11.94945 29.274421,22.70189 46.575022,31.43359 2.830296,1.42846 5.145346,2.65674 5.144566,2.7295 -0.002,0.16452 -14.836132,6.35279 -15.224876,6.35117 -0.155303,-5.3e-4 -1.286396,-0.60025 -2.513542,-1.33245 z"
           style="fill:#eb1747;stroke-width:0.26458332" />
        <path
           inkscape:connector-curvature="0"
           id="path23"
           d="m 88.71303,192.47881 v -21.43629 l 22.42344,0.01 22.42343,0.01 -1.52329,1.43588 c -2.43843,2.29849 -2.04269,2.24897 -17.9716,2.24897 H 100.3547 v 5.55625 5.55625 h 11.90625 c 7.73817,0 11.90625,0.0924 11.90625,0.26382 0,0.52505 -1.91163,2.36363 -3.01078,2.89572 -1.07385,0.51984 -1.57271,0.54462 -10.96338,0.54462 h -9.83834 v 7.36038 7.36037 l -1.002838,1.65851 c -2.452722,4.05636 -6.014812,6.85869 -9.911228,7.79723 l -0.727604,0.17526 z m 38.76146,20.38445 c 0.58208,-0.6066 1.64817,-1.48179 2.36908,-1.94488 l 1.31075,-0.84196 5.56842,-0.17347 c 6.27107,-0.19536 9.51675,-0.72494 13.41345,-2.1886 3.33888,-1.25413 5.09723,-2.38687 7.64017,-4.92183 2.7113,-2.70279 4.19789,-5.33961 5.16929,-9.16898 0.90567,-3.57025 0.85894,-3.84987 -0.38125,-2.28092 -2.4738,3.1296 -5.68995,5.15996 -9.80728,6.19135 -3.17179,0.79453 -8.61068,0.6134 -11.99746,-0.39955 -6.81129,-2.03719 -10.91913,-6.09573 -11.24065,-11.10578 -0.47491,-7.40009 6.42014,-13.25842 17.79923,-15.12297 9.61821,-1.57602 19.2627,1.45638 24.22584,7.61705 2.82668,3.50871 3.83413,7.06492 3.38617,11.95276 -0.9383,10.23787 -8.09902,17.49156 -20.62223,20.88995 -6.07504,1.64857 -11.30302,2.27147 -20.61582,2.45632 l -7.27605,0.14442 z m 27.26323,-21.47227 c 5.02331,-0.92861 8.58781,-4.48557 8.58781,-8.56964 0,-2.30781 -0.64752,-3.98569 -2.09476,-5.42797 -2.27324,-2.26546 -5.74836,-3.33021 -10.07607,-3.08724 -4.4038,0.24725 -7.60852,1.86591 -8.98045,4.53592 -0.59341,1.15488 -0.67685,1.64408 -0.67685,3.96875 0,2.44459 0.0613,2.76208 0.78486,4.06849 1.28257,2.31559 3.3441,3.70237 6.53239,4.39434 2.09334,0.45433 3.90591,0.49024 5.92307,0.11735 z"
           style="fill:#141212;stroke-width:0.26458332" />
      </g>
    </g>
  </g>
</svg>
